<svg width="30" height="30" fill="none" xmlns="http://www.w3.org/2000/svg"><path d="M21.313 12.106a.854.854 0 00-1.191-.228.862.862 0 00-.235 1.192 3.462 3.462 0 01-.005 3.885.86.86 0 00.23 1.193.865.865 0 001.194-.236 5.174 5.174 0 00.007-5.806z" fill="#959AAE"/><path d="M23.732 9.601a.817.817 0 00-.566-.318.852.852 0 00-.642.186.86.86 0 00-.136 1.206 6.912 6.912 0 01-.01 8.672.857.857 0 101.341 1.07c2.548-3.19 2.554-7.637.013-10.816z" fill="#959AAE"/><path fill-rule="evenodd" clip-rule="evenodd" d="M13.628 15.003c0 5.64 3.903 3.018 3.904 6.608 0 3.463.649 4.805-3.738 4.804-.495-.054-4.898.857-4.9-11.412-.002-12.271 4.401-11.364 4.897-11.417 4.398 0 3.738 1.341 3.738 4.804.001 3.591-3.902.972-3.901 6.613z" fill="#959AAE"/></svg>