<svg width="30" height="30" viewBox="0 0 30 30" fill="none" xmlns="http://www.w3.org/2000/svg">
<path d="M21.313 12.1063C21.0385 11.7076 20.5146 11.6132 20.1219 11.8777C19.7292 12.1422 19.6239 12.6785 19.8871 13.0703C20.6808 14.2484 20.6789 15.7728 19.8825 16.955L19.8818 16.9557C19.652 17.2954 19.6957 17.7531 19.9844 18.0419C20.0231 18.0806 20.0654 18.1158 20.1119 18.1482C20.5051 18.4099 21.0406 18.3053 21.3058 17.9119C22.4954 16.1463 22.4993 13.8679 21.313 12.1063Z" fill="#959AAE"/>
<path d="M23.7321 9.60122C23.597 9.42087 23.3919 9.30906 23.1655 9.28335C22.9342 9.25553 22.7062 9.32152 22.524 9.46856C22.1538 9.76405 22.0929 10.3052 22.3879 10.675C24.4243 13.223 24.4203 16.7903 22.3787 19.3474C22.1051 19.69 22.1311 20.1809 22.4395 20.4894C22.4627 20.5126 22.4867 20.5337 22.5128 20.5541C22.6917 20.6977 22.9152 20.7616 23.1438 20.7358C23.3717 20.7093 23.5757 20.5968 23.7192 20.4166C26.267 17.2266 26.2732 12.7797 23.7321 9.60122Z" fill="#959AAE"/>
<path fill-rule="evenodd" clip-rule="evenodd" d="M13.6278 15.0026C13.6286 20.6433 17.5309 18.0208 17.5321 21.6115C17.5326 25.0739 18.1809 26.4158 13.7941 26.4152C13.2985 26.3613 8.89587 27.2722 8.89416 15.0027C8.89246 2.73179 13.2953 3.63937 13.7909 3.58555C18.1891 3.58541 17.529 4.92716 17.5295 8.38956C17.53 11.981 13.627 9.36202 13.6278 15.0026Z" fill="#959AAE"/>
</svg>
